<svg xmlns="http://www.w3.org/2000/svg" viewBox="0 0 24 24" fill="#00A1E0"><path d="M10.006 5.415V2.858A2.858 2.858 0 0 0 7.148 0H2.858A2.858 2.858 0 0 0 0 2.858v4.29a2.858 2.858 0 0 0 2.858 2.857h4.29a2.858 2.858 0 0 0 2.858-2.59zm13.132 0a2.858 2.858 0 0 0-2.858-2.857h-4.29a2.858 2.858 0 0 0-2.858 2.857v4.29a2.858 2.858 0 0 0 2.858 2.857h4.29A2.858 2.858 0 0 0 24 9.705V5.415zM5.415 13.99H2.858A2.858 2.858 0 0 0 0 16.848v4.29a2.858 2.858 0 0 0 2.858 2.858h4.29a2.858 2.858 0 0 0 2.857-2.858v-4.29a2.858 2.858 0 0 0-2.59-2.858zm16.723 0h-2.557a2.858 2.858 0 0 0-2.858 2.858v4.29a2.858 2.858 0 0 0 2.858 2.858h4.29A2.858 2.858 0 0 0 24 21.138v-4.29a2.858 2.858 0 0 0-2.862-2.858z"/></svg>
